<?xml version="1.0" encoding="UTF-8"?>
<svg width="217px" height="32px" viewBox="0 0 217 32" version="1.1" xmlns="http://www.w3.org/2000/svg" xmlns:xlink="http://www.w3.org/1999/xlink">
    <!-- Generator: Sketch 64 (93537) - https://sketch.com -->
    <title>FreshGoods</title>
    <desc>Created with Sketch.</desc>
    <g id="Page-1" stroke="none" stroke-width="1" fill="none" fill-rule="evenodd">
        <g id="Storefront-Wireframe-Copy" transform="translate(-254.000000, -158.000000)" fill="#FFFFFF" fill-rule="nonzero">
            <path d="M266.529297,189 L266.529297,188.205078 C264.867839,188.076172 263.790039,187.786133 263.295898,187.334961 C262.801758,186.883789 262.554688,185.848958 262.554688,184.230469 L262.554688,184.230469 L262.554688,174.605469 L268.914062,174.605469 C270.776042,174.605469 271.964844,174.881185 272.480469,175.432617 C272.996094,175.984049 273.41862,177.111979 273.748047,178.816406 L273.748047,178.816406 L274.779297,178.816406 L274.779297,168.632812 L273.748047,168.632812 C273.432943,170.33724 273.017578,171.46875 272.501953,172.027344 C271.986328,172.585938 270.790365,172.865234 268.914062,172.865234 L268.914062,172.865234 L262.554688,172.865234 L262.554688,163.046875 C262.554688,162.459635 262.637044,162.065755 262.801758,161.865234 C262.966471,161.664714 263.342448,161.564453 263.929688,161.564453 L263.929688,161.564453 L269.945312,161.564453 C272.394531,161.564453 274.034505,161.833008 274.865234,162.370117 C275.695964,162.907227 276.261719,164.185547 276.5625,166.205078 L276.5625,166.205078 L277.787109,166.205078 L277.636719,159.888672 L254.197266,159.888672 L254.197266,160.705078 C255.830078,160.819661 256.882812,161.116862 257.355469,161.59668 C257.828125,162.076497 258.064453,163.097005 258.064453,164.658203 L258.064453,164.658203 L258.064453,183.714844 C258.064453,185.619792 257.85319,186.797852 257.430664,187.249023 C257.008138,187.700195 255.930339,188.01888 254.197266,188.205078 L254.197266,188.205078 L254.197266,189 L266.529297,189 Z M288.958984,189 L288.958984,188.291016 C287.626953,188.319661 286.674479,188.094076 286.101562,187.614258 C285.528646,187.13444 285.242188,186.278646 285.242188,185.046875 L285.242188,185.046875 L285.242188,175.357422 C285.242188,174.498047 285.607422,173.663737 286.337891,172.854492 C287.068359,172.045247 287.684245,171.640625 288.185547,171.640625 C288.500651,171.640625 288.933919,171.891276 289.485352,172.392578 C290.036784,172.89388 290.584635,173.144531 291.128906,173.144531 C291.658854,173.144531 292.099284,172.94401 292.450195,172.542969 C292.801107,172.141927 292.976562,171.647786 292.976562,171.060547 C292.976562,170.401693 292.747396,169.853841 292.289062,169.416992 C291.830729,168.980143 291.236328,168.761719 290.505859,168.761719 C289.589193,168.761719 288.704753,169.119792 287.852539,169.835938 C287.000326,170.552083 286.115885,171.547526 285.199219,172.822266 L285.199219,172.822266 L285.199219,169.298828 C285.199219,169.069661 285.188477,168.919271 285.166992,168.847656 C285.145508,168.776042 285.084635,168.740234 284.984375,168.740234 C284.22526,169.083984 283.48763,169.391927 282.771484,169.664062 C282.442057,169.792969 281.847656,170.007812 280.988281,170.308594 C280.128906,170.609375 279.291016,170.902995 278.474609,171.189453 L278.474609,171.189453 L278.474609,171.898438 C278.732422,171.841146 278.979492,171.794596 279.21582,171.758789 C279.452148,171.722982 279.641927,171.705078 279.785156,171.705078 C280.486979,171.705078 280.970378,172.00944 281.235352,172.618164 C281.500326,173.226888 281.632812,174.240234 281.632812,175.658203 L281.632812,175.658203 L281.632812,185.347656 C281.632812,186.49349 281.417969,187.241862 280.988281,187.592773 C280.558594,187.943685 279.684896,188.176432 278.367188,188.291016 L278.367188,188.291016 L278.367188,189 L288.958984,189 Z M302.128906,189.515625 C304.463542,189.515625 306.436523,188.742188 308.047852,187.195312 C309.65918,185.648438 310.758464,183.965495 311.345703,182.146484 L311.345703,182.146484 L310.59375,181.888672 C309.720052,183.335286 308.767578,184.452474 307.736328,185.240234 C306.705078,186.027995 305.4375,186.421875 303.933594,186.421875 C302.071615,186.421875 300.460286,185.66276 299.099609,184.144531 C297.738932,182.626302 296.986979,180.205729 296.84375,176.882812 L296.84375,176.882812 L310.486328,176.882812 C310.486328,174.31901 309.727214,172.338867 308.208984,170.942383 C306.690755,169.545898 304.921875,168.847656 302.902344,168.847656 C300.166667,168.847656 297.946615,169.893229 296.242188,171.984375 C294.53776,174.075521 293.685547,176.560547 293.685547,179.439453 C293.685547,182.089193 294.419596,184.43099 295.887695,186.464844 C297.355794,188.498698 299.436198,189.515625 302.128906,189.515625 Z M305.996094,175.507812 L296.929688,175.507812 C297.130208,174.333333 297.459635,173.359375 297.917969,172.585938 C298.777344,171.139323 300.023438,170.416016 301.65625,170.416016 C303.303385,170.416016 304.477865,171.046224 305.179688,172.306641 C305.566406,173.008464 305.838542,174.075521 305.996094,175.507812 L305.996094,175.507812 Z M320.798828,189.408203 C322.847005,189.408203 324.504883,188.871094 325.772461,187.796875 C327.040039,186.722656 327.673828,185.340495 327.673828,183.650391 C327.673828,181.444661 326.148438,179.511068 323.097656,177.849609 L323.097656,177.849609 L320.261719,176.324219 C318.285156,175.292969 317.296875,174.11849 317.296875,172.800781 C317.296875,171.970052 317.583333,171.246745 318.15625,170.630859 C318.729167,170.014974 319.516927,169.707031 320.519531,169.707031 C322.195312,169.707031 323.477214,170.423177 324.365234,171.855469 C324.852214,172.628906 325.238932,173.710286 325.525391,175.099609 L325.525391,175.099609 L326.191406,175.099609 L326.041016,169.105469 L325.525391,169.105469 C325.439453,169.263021 325.339193,169.377604 325.224609,169.449219 C325.110026,169.520833 324.923828,169.556641 324.666016,169.556641 C324.551432,169.556641 324.039388,169.413411 323.129883,169.126953 C322.220378,168.840495 321.386068,168.697266 320.626953,168.697266 C318.89388,168.697266 317.454427,169.212891 316.308594,170.244141 C315.16276,171.275391 314.589844,172.593099 314.589844,174.197266 C314.589844,175.500651 315.005208,176.632161 315.835938,177.591797 C316.666667,178.551432 317.962891,179.503906 319.724609,180.449219 L319.724609,180.449219 L322.130859,181.824219 C323.033203,182.354167 323.663411,182.898438 324.021484,183.457031 C324.379557,184.015625 324.558594,184.595703 324.558594,185.197266 C324.558594,186.142578 324.24707,186.912435 323.624023,187.506836 C323.000977,188.101237 322.152344,188.398438 321.078125,188.398438 C319.144531,188.398438 317.676432,187.596354 316.673828,185.992188 C316.115234,185.11849 315.671224,183.865234 315.341797,182.232422 L315.341797,182.232422 L314.632812,182.232422 L314.632812,189.171875 L315.191406,189.171875 C315.263021,189 315.363281,188.85319 315.492188,188.731445 C315.621094,188.609701 315.771484,188.548828 315.943359,188.548828 C316.14388,188.548828 316.788411,188.692057 317.876953,188.978516 C318.965495,189.264974 319.939453,189.408203 320.798828,189.408203 Z M339.339844,189 L339.339844,188.398438 C338.122396,188.226562 337.327474,187.940104 336.955078,187.539062 C336.582682,187.138021 336.396484,186.135417 336.396484,184.53125 L336.396484,184.53125 L336.396484,173.939453 C336.396484,173.695964 336.919271,173.173177 337.964844,172.371094 C339.010417,171.56901 340.091797,171.167969 341.208984,171.167969 C342.498047,171.167969 343.375326,171.597656 343.84082,172.457031 C344.306315,173.316406 344.539062,174.440755 344.539062,175.830078 L344.539062,175.830078 L344.539062,184.53125 C344.539062,186.106771 344.360026,187.102214 344.001953,187.517578 C343.64388,187.932943 342.841797,188.226562 341.595703,188.398438 L341.595703,188.398438 L341.595703,189 L350.898438,189 L350.898438,188.398438 C349.809896,188.255208 349.090169,187.954427 348.739258,187.496094 C348.388346,187.03776 348.212891,186.049479 348.212891,184.53125 L348.212891,184.53125 L348.212891,175.765625 C348.212891,174.089844 347.983724,172.736328 347.525391,171.705078 C346.680339,169.757161 345.097656,168.783203 342.777344,168.783203 C341.316406,168.783203 339.955729,169.212891 338.695312,170.072266 C337.99349,170.559245 337.191406,171.318359 336.289062,172.349609 L336.289062,172.349609 L336.289062,159.158203 L336.246094,159.007812 L334.183594,159.652344 C333.825521,159.766927 333.18457,159.956706 332.260742,160.22168 C331.336914,160.486654 330.559896,160.71224 329.929688,160.898438 L329.929688,160.898438 L329.929688,161.671875 C330.115885,161.643229 330.28418,161.618164 330.43457,161.59668 C330.584961,161.575195 330.738932,161.564453 330.896484,161.564453 C331.698568,161.564453 332.203451,161.754232 332.411133,162.133789 C332.618815,162.513346 332.722656,163.104167 332.722656,163.90625 L332.722656,163.90625 L332.722656,184.53125 C332.722656,186.106771 332.540039,187.105794 332.174805,187.52832 C331.80957,187.950846 331.039714,188.240885 329.865234,188.398438 L329.865234,188.398438 L329.865234,189 L339.339844,189 Z M368.880859,189.837891 C371.573568,189.837891 374.008464,189.537109 376.185547,188.935547 C378.36263,188.333984 379.938151,187.732422 380.912109,187.130859 L380.912109,187.130859 L380.912109,181.523438 C380.912109,180.005208 381.15918,178.970378 381.65332,178.418945 C382.147461,177.867513 383.153646,177.563151 384.671875,177.505859 L384.671875,177.505859 L384.671875,176.388672 L369.589844,176.388672 L369.589844,177.505859 C371.208333,177.534505 372.282552,177.677734 372.8125,177.935547 C373.628906,178.350911 374.037109,179.224609 374.037109,180.556641 L374.037109,180.556641 L374.037109,185.197266 C374.037109,186.099609 373.850911,186.772786 373.478516,187.216797 C372.833984,188.004557 371.573568,188.398438 369.697266,188.398438 C366.23112,188.398438 363.892904,186.962565 362.682617,184.09082 C361.472331,181.219076 360.867188,177.94987 360.867188,174.283203 C360.867188,169.814453 361.51888,166.348307 362.822266,163.884766 C364.125651,161.421224 366.195312,160.189453 369.03125,160.189453 C371.638021,160.189453 373.972656,161.378255 376.035156,163.755859 C377.138021,165.044922 378.219401,166.806641 379.279297,169.041016 L379.279297,169.041016 L380.396484,169.041016 L380.396484,158.75 L379.171875,158.75 C378.985677,159.423177 378.749349,159.924479 378.462891,160.253906 C378.176432,160.583333 377.796875,160.748047 377.324219,160.748047 C376.880208,160.748047 375.755859,160.407878 373.951172,159.727539 C372.146484,159.047201 370.334635,158.707031 368.515625,158.707031 C363.97526,158.707031 360.244141,160.246745 357.322266,163.326172 C354.500651,166.319661 353.089844,170.007812 353.089844,174.390625 C353.089844,178.730469 354.450521,182.339844 357.171875,185.21875 C360.09375,188.298177 363.996745,189.837891 368.880859,189.837891 Z M396.595703,189.666016 C399.546224,189.666016 401.938151,188.609701 403.771484,186.49707 C405.604818,184.38444 406.521484,181.860026 406.521484,178.923828 C406.521484,175.944661 405.594076,173.409505 403.739258,171.318359 C401.88444,169.227214 399.503255,168.181641 396.595703,168.181641 C393.745443,168.181641 391.378581,169.205729 389.495117,171.253906 C387.611654,173.302083 386.669922,175.858724 386.669922,178.923828 C386.669922,181.974609 387.608073,184.527669 389.484375,186.583008 C391.360677,188.638346 393.73112,189.666016 396.595703,189.666016 Z M396.595703,188.248047 C395.10612,188.248047 394.110677,187.295573 393.609375,185.390625 C393.294271,184.158854 393.136719,182.003255 393.136719,178.923828 C393.136719,175.88737 393.301432,173.731771 393.630859,172.457031 C394.132161,170.552083 395.127604,169.599609 396.617188,169.599609 C397.977865,169.599609 398.890951,170.333659 399.356445,171.801758 C399.82194,173.269857 400.054688,175.64388 400.054688,178.923828 C400.054688,182.218099 399.832682,184.595703 399.388672,186.056641 C398.944661,187.517578 398.013672,188.248047 396.595703,188.248047 Z M418.595703,189.666016 C421.546224,189.666016 423.938151,188.609701 425.771484,186.49707 C427.604818,184.38444 428.521484,181.860026 428.521484,178.923828 C428.521484,175.944661 427.594076,173.409505 425.739258,171.318359 C423.88444,169.227214 421.503255,168.181641 418.595703,168.181641 C415.745443,168.181641 413.378581,169.205729 411.495117,171.253906 C409.611654,173.302083 408.669922,175.858724 408.669922,178.923828 C408.669922,181.974609 409.608073,184.527669 411.484375,186.583008 C413.360677,188.638346 415.73112,189.666016 418.595703,189.666016 Z M418.595703,188.248047 C417.10612,188.248047 416.110677,187.295573 415.609375,185.390625 C415.294271,184.158854 415.136719,182.003255 415.136719,178.923828 C415.136719,175.88737 415.301432,173.731771 415.630859,172.457031 C416.132161,170.552083 417.127604,169.599609 418.617188,169.599609 C419.977865,169.599609 420.890951,170.333659 421.356445,171.801758 C421.82194,173.269857 422.054688,175.64388 422.054688,178.923828 C422.054688,182.218099 421.832682,184.595703 421.388672,186.056641 C420.944661,187.517578 420.013672,188.248047 418.595703,188.248047 Z M444.613281,189.623047 C446.417969,189.121745 447.678385,188.810221 448.394531,188.688477 C449.110677,188.566732 450.700521,188.384115 453.164062,188.140625 L453.164062,188.140625 L453.164062,187.130859 C452.161458,187.044922 451.488281,186.826497 451.144531,186.475586 C450.800781,186.124674 450.628906,185.490885 450.628906,184.574219 L450.628906,184.574219 L450.628906,159.265625 L441.154297,159.265625 L441.154297,160.339844 C442.500651,160.397135 443.388672,160.558268 443.818359,160.823242 C444.248047,161.088216 444.462891,161.772135 444.462891,162.875 L444.462891,162.875 L444.462891,170.931641 C443.617839,170.04362 442.916016,169.427734 442.357422,169.083984 C441.455078,168.511068 440.423828,168.224609 439.263672,168.224609 C436.943359,168.224609 434.956055,169.230794 433.301758,171.243164 C431.647461,173.255534 430.820312,176.001953 430.820312,179.482422 C430.820312,182.604818 431.615234,185.075521 433.205078,186.894531 C434.794922,188.713542 436.664062,189.623047 438.8125,189.623047 C440.072917,189.623047 441.247396,189.29362 442.335938,188.634766 C443.023438,188.219401 443.782552,187.582031 444.613281,186.722656 L444.613281,186.722656 L444.613281,189.623047 Z M440.789062,187.130859 C439.285156,187.130859 438.268229,186.092448 437.738281,184.015625 C437.451823,182.869792 437.308594,181.165365 437.308594,178.902344 C437.308594,176.782552 437.458984,175.142578 437.759766,173.982422 C438.318359,171.819661 439.378255,170.738281 440.939453,170.738281 C441.999349,170.738281 442.851562,171.089193 443.496094,171.791016 C444.140625,172.492839 444.462891,173.022786 444.462891,173.380859 L444.462891,173.380859 L444.462891,184.080078 C444.462891,184.423828 444.086914,185.018229 443.334961,185.863281 C442.583008,186.708333 441.734375,187.130859 440.789062,187.130859 Z M456.34375,189.623047 C456.572917,189.164714 456.777018,188.838867 456.956055,188.645508 C457.135091,188.452148 457.346354,188.355469 457.589844,188.355469 C457.690104,188.355469 457.772461,188.36263 457.836914,188.376953 C457.901367,188.391276 458.069661,188.448568 458.341797,188.548828 L458.341797,188.548828 L459.09375,188.806641 C459.967448,189.107422 460.701497,189.318685 461.295898,189.44043 C461.890299,189.562174 462.48112,189.623047 463.068359,189.623047 C465.431641,189.623047 467.204102,188.917643 468.385742,187.506836 C469.567383,186.096029 470.158203,184.574219 470.158203,182.941406 C470.158203,181.265625 469.585286,179.854818 468.439453,178.708984 C467.751953,178.035807 466.663411,177.341146 465.173828,176.625 L465.173828,176.625 L462.767578,175.464844 C461.607422,174.90625 460.819661,174.361979 460.404297,173.832031 C459.974609,173.316406 459.759766,172.800781 459.759766,172.285156 C459.759766,171.654948 459.999674,171.067708 460.479492,170.523438 C460.95931,169.979167 461.686198,169.707031 462.660156,169.707031 C463.920573,169.707031 465.023438,170.158203 465.96875,171.060547 C466.914062,171.962891 467.594401,173.158854 468.009766,174.648438 L468.009766,174.648438 L469.126953,174.648438 L469.126953,168.289062 L468.160156,168.289062 C468.059896,168.561198 467.93457,168.772461 467.78418,168.922852 C467.633789,169.073242 467.379557,169.148438 467.021484,169.148438 C466.763672,169.148438 466.111979,168.994466 465.066406,168.686523 C464.020833,168.378581 463.032552,168.224609 462.101562,168.224609 C459.967448,168.224609 458.30599,168.844076 457.117188,170.083008 C455.928385,171.32194 455.333984,172.79362 455.333984,174.498047 C455.333984,175.844401 455.713542,177.011719 456.472656,178 C457.217448,178.988281 458.449219,179.904948 460.167969,180.75 L460.167969,180.75 L463.433594,182.339844 C464.135417,182.683594 464.64388,183.005859 464.958984,183.306641 C465.531901,183.865234 465.818359,184.538411 465.818359,185.326172 C465.818359,186.156901 465.553385,186.826497 465.023438,187.334961 C464.49349,187.843424 463.66276,188.097656 462.53125,188.097656 C461.299479,188.097656 460.096354,187.664388 458.921875,186.797852 C457.747396,185.931315 456.945312,184.445312 456.515625,182.339844 L456.515625,182.339844 L455.291016,182.339844 L455.291016,189.623047 L456.34375,189.623047 Z" id="FreshGoods"></path>
        </g>
    </g>
</svg>